<svg viewBox="0 0 510 240" role="img" aria-label="ローカルリポジトリは自分のパソコンの中にあり、リモートリポジトリはGitHubのようなサーバ上にあって複数人で共有する。ローカルからリモートへ矢印が伸び、共有する操作を表す。" xmlns="http://www.w3.org/2000/svg">
<style>
  .bg { fill: #eef1ef; }
  .box { fill: #ffffff; stroke: #d7dcd8; stroke-width: 1.4; }
  .box-title { fill: #15191a; font-family: -apple-system, "Segoe UI", "Hiragino Kaku Gothic ProN", "Yu Gothic", "Noto Sans JP", sans-serif; font-size: 15px; font-weight: 700; text-anchor: middle; }
  .box-sub { fill: #465049; font-family: -apple-system, "Segoe UI", "Hiragino Kaku Gothic ProN", "Yu Gothic", "Noto Sans JP", sans-serif; font-size: 11.5px; text-anchor: middle; }
  .tag { fill: #465049; font-family: -apple-system, "Segoe UI", "Hiragino Kaku Gothic ProN", "Yu Gothic", "Noto Sans JP", sans-serif; font-size: 11px; text-anchor: middle; }
  .icon { fill: #1f6f66; }
  .arrow-line { stroke: #1f6f66; stroke-width: 2; fill: none; }
  .arrow-label { fill: #164f48; font-family: -apple-system, "Segoe UI", "Hiragino Kaku Gothic ProN", "Yu Gothic", "Noto Sans JP", sans-serif; font-size: 12.5px; font-weight: 600; text-anchor: middle; }
  @media (prefers-color-scheme: dark) {
    .bg { fill: #121615; }
    .box { fill: #1a1f1d; stroke: #2b3230; }
    .box-title { fill: #e7ece9; }
    .box-sub { fill: #a9b3ac; }
    .tag { fill: #a9b3ac; }
    .icon { fill: #5fc0b3; }
    .arrow-line { stroke: #5fc0b3; }
    .arrow-label { fill: #86d6cb; }
  }
</style>

<rect class="bg" x="0" y="0" width="510" height="240"/>

<defs>
  <marker id="lrArrow" viewBox="0 0 10 10" refX="8" refY="5" markerWidth="7" markerHeight="7" orient="auto-start-reverse">
    <polygon points="0,0 10,5 0,10" class="icon"/>
  </marker>
</defs>

<!-- Box 1: local repository -->
<g>
  <rect class="box" x="20" y="70" width="180" height="130" rx="10"/>
  <g transform="translate(96,86) scale(1.1667)">
    <path class="icon" d="M21 16.4999V4.8999H3V16.4999H10.5V19.4999H7.5V20.9999H16.5V19.4999H13.5V16.4999H21ZM4.5 6.3999H19.5V14.9999H4.5V6.3999Z"/>
  </g>
  <text class="box-title" x="110" y="150">ローカルリポジトリ</text>
  <text class="box-sub" x="110" y="170">自分のパソコンの中</text>
  <text class="tag" x="110" y="45">1人ならここで完結</text>
</g>

<!-- Arrow -->
<line class="arrow-line" x1="208" y1="135" x2="302" y2="135" marker-end="url(#lrArrow)"/>
<text class="arrow-label" x="255" y="118">共有する</text>

<!-- Box 2: remote repository -->
<g>
  <rect class="box" x="310" y="70" width="180" height="130" rx="10"/>
  <g transform="translate(386,86) scale(1.1667)">
    <path class="icon" fill-rule="evenodd" clip-rule="evenodd" d="M9.99922 5C9.99922 6.6 8.69922 7.9 7.09922 7.9C5.49922 7.9 4.19922 6.5 4.19922 4.9C4.19922 3.3 5.39922 2 7.09922 2C8.79922 2 9.99922 3.4 9.99922 5ZM8.49922 4.9C8.49922 4.1 7.89922 3.5 7.09922 3.5C6.29922 3.5 5.69922 4.1 5.69922 4.9C5.69922 5.7 6.29922 6.4 7.09922 6.4C7.89922 6.4 8.49922 5.7 8.49922 4.9ZM22.4984 13.6999C22.4984 11.0999 20.3984 8.8999 17.6984 8.8999H15.9984C14.2984 8.8999 12.8984 9.7999 11.9984 11.0999C11.1984 9.7999 9.69844 8.8999 7.99844 8.8999H6.19844C3.59844 8.8999 1.39844 10.9999 1.39844 13.6999V20.9999H2.99844V13.6999C2.99844 11.8999 4.49844 10.4999 6.19844 10.4999H7.99844C9.39844 10.4999 10.5984 11.3999 10.9984 12.5999H12.9984C13.4984 11.3999 14.5984 10.4999 15.9984 10.4999H17.7984C19.5984 10.4999 20.9984 11.9999 20.9984 13.6999V20.9999H22.4984V13.6999ZM11.9969 18.5C10.2969 18.5 8.89687 19.5 8.29688 21H15.6969C15.0969 19.5 13.6969 18.5 11.9969 18.5ZM16.9 7.9C18.5 7.9 19.8 6.6 19.8 5C19.8 3.4 18.5 2 16.9 2C15.3 2 14 3.3 14 4.9C14 6.5 15.2 7.9 16.9 7.9ZM16.9 3.5C17.7 3.5 18.3 4.1 18.3 4.9C18.3 5.7 17.7 6.3 16.9 6.3C16.1 6.3 15.5 5.7 15.5 4.9C15.5 4.1 16.1 3.5 16.9 3.5ZM14 15.5C14 16.6046 13.1046 17.5 12 17.5C10.8954 17.5 10 16.6046 10 15.5C10 14.3954 10.8954 13.5 12 13.5C13.1046 13.5 14 14.3954 14 15.5Z"/>
  </g>
  <text class="box-title" x="400" y="150">リモートリポジトリ</text>
  <text class="box-sub" x="400" y="170">GitHub上にある</text>
  <text class="tag" x="400" y="45">複数人で見る・使う</text>
</g>

</svg>
